<svg id="Layer_1" data-name="Layer 1" xmlns="http://www.w3.org/2000/svg" viewBox="0 0 134.46 36"><defs><style>.cls-1{fill:#fc5b62;}.cls-2{fill:#444;}</style></defs><path class="cls-1" d="M14.73,36H11.45a2,2,0,0,1-2-2V32.68a2,2,0,0,1,2-2h3.28a2,2,0,0,1,2,2V34A2,2,0,0,1,14.73,36Zm-3.28-3.87a.55.55,0,0,0-.55.55V34a.55.55,0,0,0,.55.55h3.27a.56.56,0,0,0,.56-.55V32.68a.55.55,0,0,0-.55-.55Zm3.29-2.89H11.35a2.36,2.36,0,0,1-1.76-.76c-.62-.66-1.27-1.31-1.92-2C3.9,22.71,0,18.77,0,12.94A12.8,12.8,0,0,1,3.78,3.76,13.08,13.08,0,0,1,13,0a13.09,13.09,0,0,1,9.27,3.76,12.85,12.85,0,0,1,3.77,9.18c0,5.6-3.91,9.63-7.36,13.19-.77.78-1.52,1.56-2.22,2.34A2.31,2.31,0,0,1,14.74,29.24ZM13,1.44A11.63,11.63,0,0,0,4.79,4.79a11.36,11.36,0,0,0-3.35,8.15c0,5.24,3.69,9,7.26,12.56.65.66,1.31,1.32,1.94,2a.92.92,0,0,0,.71.31h3.39a.86.86,0,0,0,.69-.3c.71-.79,1.48-1.57,2.26-2.38,3.42-3.52,7-7.16,7-12.18a11.4,11.4,0,0,0-3.35-8.16A11.63,11.63,0,0,0,13,1.44Z"/><path class="cls-1" d="M11.68,29A24.35,24.35,0,0,1,5.77,13.5C5.77,5.68,8.85,0,13.08,0s7.31,5.68,7.31,13.5c0,7-2.57,10.84-4.85,14.19l-.81,1.21-1.2-.79.82-1.22c2.26-3.35,4.6-6.8,4.6-13.39,0-6.87-2.52-12.06-5.87-12.06S7.21,6.62,7.21,13.5A23.05,23.05,0,0,0,12.73,28Z"/><rect class="cls-1" x="12.36" y="0.72" width="1.44" height="27.79"/><path class="cls-2" d="M38.39,23.53,33.74,13.41v8A2.43,2.43,0,0,0,34,22.83a1.31,1.31,0,0,0,1,.38h.42v.32H31.25v-.32h.43a1.21,1.21,0,0,0,1.08-.47,2.66,2.66,0,0,0,.2-1.29V13.59a2.77,2.77,0,0,0-.18-1.16,1,1,0,0,0-.46-.43,2.51,2.51,0,0,0-1.07-.17V11.5h3.41L39,20.92l4.29-9.42h3.41v.33h-.42a1.24,1.24,0,0,0-1.09.46,2.69,2.69,0,0,0-.2,1.3v7.86a2.41,2.41,0,0,0,.25,1.38,1.32,1.32,0,0,0,1,.38h.42v.32H41.62v-.32H42a1.19,1.19,0,0,0,1.08-.47,2.66,2.66,0,0,0,.2-1.29v-8L38.68,23.53Z"/><path class="cls-2" d="M55.42,19.5H50.76L50,21.4a3,3,0,0,0-.3,1.05.58.58,0,0,0,.26.48,2.33,2.33,0,0,0,1.13.28v.32H47.25v-.32a2.11,2.11,0,0,0,1-.35,5.48,5.48,0,0,0,1-1.73l4.23-9.9h.31l4.19,10a4.38,4.38,0,0,0,.92,1.56,1.84,1.84,0,0,0,1.14.41v.32H55.28v-.32a1.89,1.89,0,0,0,1-.24.63.63,0,0,0,.25-.5,3.78,3.78,0,0,0-.35-1.23Zm-.25-.65-2-4.86L51,18.85Z"/><path class="cls-2" d="M71.38,11.23,71.69,15h-.31a5.13,5.13,0,0,0-1.22-2.13,3.79,3.79,0,0,0-2.75-1,3.93,3.93,0,0,0-3.5,1.82,6.5,6.5,0,0,0-1,3.65,7.33,7.33,0,0,0,.66,3.14,4.69,4.69,0,0,0,1.75,2.08,4.16,4.16,0,0,0,2.21.67A5.07,5.07,0,0,0,68.82,23a5.37,5.37,0,0,0,1.19-.5V19.06a3.27,3.27,0,0,0-.13-1.18,1,1,0,0,0-.43-.43,2.45,2.45,0,0,0-1-.14V17h4.66v.34h-.22a1,1,0,0,0-1,.46,3.06,3.06,0,0,0-.18,1.29v3.68a8.28,8.28,0,0,1-4.22,1.07,6.44,6.44,0,0,1-5.3-2.24,6,6,0,0,1-1.35-3.87A6.77,6.77,0,0,1,64.11,12a6.18,6.18,0,0,1,3.13-.77,6.29,6.29,0,0,1,1.19.1A12.82,12.82,0,0,1,70,11.8a2.24,2.24,0,0,0,.67.19.36.36,0,0,0,.29-.15,1.39,1.39,0,0,0,.14-.61Z"/><path class="cls-2" d="M79,23.21v.32H73.8v-.32h.43a1.3,1.3,0,0,0,1.08-.44,2.73,2.73,0,0,0,.21-1.37V13.63a4.21,4.21,0,0,0-.11-1.2A.81.81,0,0,0,75,12a1.69,1.69,0,0,0-.81-.21H73.8V11.5H79v.33h-.44a1.26,1.26,0,0,0-1.07.44,2.57,2.57,0,0,0-.22,1.36V21.4a3.94,3.94,0,0,0,.11,1.21.75.75,0,0,0,.37.38,1.7,1.7,0,0,0,.81.22Z"/><path class="cls-2" d="M90.34,11.23l.27,4.09h-.27a5.17,5.17,0,0,0-1.57-2.65,3.88,3.88,0,0,0-2.45-.8,4.05,4.05,0,0,0-2.17.6,4.11,4.11,0,0,0-1.52,1.94,8.64,8.64,0,0,0-.55,3.31,7,7,0,0,0,.52,2.83,4,4,0,0,0,1.58,1.84,4.58,4.58,0,0,0,2.4.64,4.16,4.16,0,0,0,2.06-.5,6.82,6.82,0,0,0,2-2l.28.17a6.35,6.35,0,0,1-2.11,2.35,5.34,5.34,0,0,1-2.87.75,5.42,5.42,0,0,1-4.63-2.22,6.31,6.31,0,0,1-1.22-3.89,6.94,6.94,0,0,1,.8-3.3,5.79,5.79,0,0,1,2.23-2.34,5.92,5.92,0,0,1,3.09-.83,5.62,5.62,0,0,1,2.57.64,1.4,1.4,0,0,0,.53.19.57.57,0,0,0,.42-.17,1.47,1.47,0,0,0,.33-.66Z"/><path class="cls-2" d="M106.24,11.5l.14,2.82H106a3.31,3.31,0,0,0-.27-1.06,1.73,1.73,0,0,0-.73-.76,2.56,2.56,0,0,0-1.2-.24h-1.69v9.19a2.55,2.55,0,0,0,.23,1.38,1.35,1.35,0,0,0,1,.38h.42v.32h-5.1v-.32h.43a1.23,1.23,0,0,0,1.08-.47,2.7,2.7,0,0,0,.19-1.29V12.26H99a4.16,4.16,0,0,0-1.2.12A1.63,1.63,0,0,0,97,13a2.59,2.59,0,0,0-.39,1.29h-.34l.14-2.82Z"/><path class="cls-2" d="M119.11,23.53H115.9l-4.08-5.62-.73,0h-.53V21.4a2.48,2.48,0,0,0,.25,1.41,1.24,1.24,0,0,0,1,.4h.47v.32h-5.15v-.32h.45a1.21,1.21,0,0,0,1.09-.5,2.72,2.72,0,0,0,.19-1.31V13.63a2.44,2.44,0,0,0-.25-1.41,1.3,1.3,0,0,0-1-.39h-.45V11.5h4.38a10.73,10.73,0,0,1,2.83.28,3.27,3.27,0,0,1,1.54,1,2.71,2.71,0,0,1,.64,1.79,2.8,2.8,0,0,1-.73,1.92,4.08,4.08,0,0,1-2.24,1.16l2.49,3.45a6.05,6.05,0,0,0,1.46,1.58,3.82,3.82,0,0,0,1.6.5Zm-8.55-6.18h.5a3.92,3.92,0,0,0,2.6-.75,2.38,2.38,0,0,0,.87-1.9,2.48,2.48,0,0,0-.71-1.83,2.51,2.51,0,0,0-1.86-.7,7.24,7.24,0,0,0-1.4.17Z"/><path class="cls-2" d="M124.55,23.21v.32H119.4v-.32h.43a1.3,1.3,0,0,0,1.08-.44,2.73,2.73,0,0,0,.21-1.37V13.63a4.21,4.21,0,0,0-.11-1.2.81.81,0,0,0-.37-.39,1.69,1.69,0,0,0-.81-.21h-.43V11.5h5.15v.33h-.43a1.26,1.26,0,0,0-1.07.44,2.54,2.54,0,0,0-.23,1.36V21.4a3.84,3.84,0,0,0,.12,1.21.75.75,0,0,0,.37.38,1.67,1.67,0,0,0,.81.22Z"/><path class="cls-2" d="M128.72,17.9v3.5a2.48,2.48,0,0,0,.25,1.41,1.26,1.26,0,0,0,1,.4h.46v.32H125.3v-.32h.45a1.21,1.21,0,0,0,1.09-.5A2.9,2.9,0,0,0,127,21.4V13.63a2.56,2.56,0,0,0-.24-1.41,1.3,1.3,0,0,0-1-.39h-.45V11.5h4.41a7.51,7.51,0,0,1,2.54.34A3.46,3.46,0,0,1,133.83,13a2.9,2.9,0,0,1,.63,1.87,3.16,3.16,0,0,1-1,2.4,3.85,3.85,0,0,1-2.74.92,7.91,7.91,0,0,1-.94-.06C129.47,18,129.11,18,128.72,17.9Zm0-.51c.32.06.6.11.84.14a5,5,0,0,0,.62,0,2.12,2.12,0,0,0,1.59-.71,2.6,2.6,0,0,0,.67-1.85,3.35,3.35,0,0,0-.32-1.45,2.22,2.22,0,0,0-.9-1,2.68,2.68,0,0,0-1.33-.33,5.46,5.46,0,0,0-1.17.17Z"/></svg>